<svg width="48" height="48" viewBox="0 0 48 48" fill="none" xmlns="http://www.w3.org/2000/svg">
<path fill-rule="evenodd" clip-rule="evenodd" d="M18.5 14C18.5 12.5413 19.0795 11.1424 20.1109 10.1109C21.1424 9.07946 22.5413 8.5 24 8.5C25.4587 8.5 26.8576 9.07946 27.8891 10.1109C28.9205 11.1424 29.5 12.5413 29.5 14C29.5 15.4587 28.9205 16.8576 27.8891 17.8891C26.8576 18.9205 25.4587 19.5 24 19.5C22.5413 19.5 21.1424 18.9205 20.1109 17.8891C19.0795 16.8576 18.5 15.4587 18.5 14ZM24 11.5C23.337 11.5 22.7011 11.7634 22.2322 12.2322C21.7634 12.7011 21.5 13.337 21.5 14C21.5 14.663 21.7634 15.2989 22.2322 15.7678C22.7011 16.2366 23.337 16.5 24 16.5C24.663 16.5 25.2989 16.2366 25.7678 15.7678C26.2366 15.2989 26.5 14.663 26.5 14C26.5 13.337 26.2366 12.7011 25.7678 12.2322C25.2989 11.7634 24.663 11.5 24 11.5Z" fill="#606B7F"/>
<path d="M10.6198 19.4138C10.775 19.0475 11.0693 18.7579 11.4379 18.6087C11.8066 18.4594 12.2195 18.4627 12.5858 18.6178L12.5878 18.6198L12.5998 18.6258L12.6538 18.6478L12.8738 18.7378C13.0724 18.8191 13.3524 18.9284 13.7138 19.0658C14.4338 19.3398 15.4438 19.7058 16.6038 20.0698C18.9598 20.8098 21.7778 21.4998 23.9998 21.4998C26.2218 21.4998 29.0398 20.8098 31.3958 20.0698C32.7297 19.6471 34.0467 19.1727 35.3438 18.6478L35.3998 18.6258L35.4118 18.6198H35.4138C35.777 18.4787 36.1809 18.4846 36.54 18.6362C36.899 18.7878 37.1849 19.0731 37.3372 19.4318C37.4895 19.7905 37.4963 20.1944 37.356 20.558C37.2158 20.9216 36.9395 21.2163 36.5858 21.3798L36.5778 21.3838L36.5578 21.3918L36.4938 21.4198L36.2478 21.5198C34.9485 22.0396 33.6303 22.5106 32.2958 22.9318C30.3198 23.5518 27.8238 24.2098 25.4998 24.4258V26.9058C25.4998 27.7658 25.7478 28.6118 26.2138 29.3378L31.2618 37.1878C31.3684 37.3535 31.4413 37.5386 31.4764 37.7325C31.5115 37.9264 31.5081 38.1254 31.4663 38.318C31.4245 38.5105 31.3452 38.693 31.2329 38.855C31.1206 39.0169 30.9775 39.1551 30.8118 39.2618C30.646 39.3684 30.4609 39.4413 30.267 39.4764C30.0731 39.5115 29.8741 39.5081 29.6816 39.4663C29.489 39.4245 29.3065 39.3452 29.1446 39.2329C28.9826 39.1206 28.8444 38.9775 28.7378 38.8118L23.9998 31.4398L19.2598 38.8118C19.1569 38.9852 19.02 39.136 18.8575 39.2554C18.695 39.3747 18.51 39.46 18.3138 39.5063C18.1175 39.5525 17.9139 39.5587 17.7152 39.5245C17.5165 39.4902 17.3267 39.4163 17.1573 39.3071C16.9878 39.1979 16.842 39.0556 16.7288 38.8888C16.6155 38.7219 16.5371 38.534 16.4981 38.3361C16.4591 38.1383 16.4604 37.9347 16.502 37.7373C16.5435 37.54 16.6244 37.3531 16.7398 37.1878L21.7858 29.3378C22.2522 28.6117 22.5001 27.7668 22.4998 26.9038V24.4258C20.1758 24.2098 17.6798 23.5538 15.7018 22.9318C14.2836 22.4837 12.8838 21.9793 11.5058 21.4198L11.4398 21.3918L11.4218 21.3838L11.4138 21.3818C11.2324 21.3047 11.0679 21.1927 10.9298 21.0521C10.7917 20.9115 10.6827 20.7451 10.6089 20.5623C10.5352 20.3795 10.4982 20.184 10.5001 19.9869C10.5019 19.7899 10.5426 19.5951 10.6198 19.4138Z" fill="#606B7F"/>
<path fill-rule="evenodd" clip-rule="evenodd" d="M2.5 24C2.5 12.126 12.126 2.5 24 2.5C35.874 2.5 45.5 12.126 45.5 24C45.5 35.874 35.874 45.5 24 45.5C12.126 45.5 2.5 35.874 2.5 24ZM24 5.5C19.0935 5.5 14.3879 7.4491 10.9185 10.9185C7.4491 14.3879 5.5 19.0935 5.5 24C5.5 28.9065 7.4491 33.6121 10.9185 37.0815C14.3879 40.5509 19.0935 42.5 24 42.5C28.9065 42.5 33.6121 40.5509 37.0815 37.0815C40.5509 33.6121 42.5 28.9065 42.5 24C42.5 19.0935 40.5509 14.3879 37.0815 10.9185C33.6121 7.4491 28.9065 5.5 24 5.5Z" fill="#606B7F"/>
</svg>
