<svg width="48" height="48" viewBox="0 0 48 48" fill="none" xmlns="http://www.w3.org/2000/svg">
<path d="M8.44399 43.99V36.89C8.44399 34.348 7.77799 33.026 6.46999 30.816C4.87545 28.1163 4.02337 25.0428 4.00018 21.9074C3.977 18.7721 4.78354 15.6863 6.33798 12.9633C7.89242 10.2403 10.1395 7.9769 12.8511 6.40272C15.5628 4.82853 18.6425 3.9996 21.778 4C26.4922 4.00053 31.0131 5.87319 34.3469 9.20623C37.6807 12.5393 39.5544 17.0598 39.556 21.774C39.556 22.934 39.556 23.514 39.604 23.838C39.72 24.614 40.084 25.282 40.438 25.974L44 32.882L41.2 34.282C40.39 34.686 39.984 34.888 39.702 35.262C39.42 35.636 39.34 36.06 39.182 36.902L39.166 36.986C38.8 38.922 38.398 41.058 37.266 42.406C36.866 42.88 36.37 43.266 35.812 43.54C34.89 43.99 33.756 43.99 31.488 43.99C30.438 43.99 29.386 44.014 28.336 43.99C25.85 43.928 24 41.836 24 39.41" stroke="#606B7F" stroke-width="3" stroke-linecap="round" stroke-linejoin="round"/>
<path d="M28.776 21.0642C27.924 21.0642 27.146 20.7402 26.556 20.2102M28.776 21.0642C28.776 23.3562 27.448 25.5322 24.892 25.5322C22.336 25.5322 21.008 27.7082 21.008 30.0002M28.776 21.0642C33.076 21.0642 33.076 14.3622 28.776 14.3622C28.384 14.3636 28.0127 14.4269 27.662 14.5522C27.872 9.55622 20.67 8.20022 19.038 12.8802M19.038 12.8802C20.228 13.6822 21.008 15.0462 21.008 16.5942M19.038 12.8802C15.334 10.3802 10.398 14.8662 12.746 18.8662C8.80601 19.4562 9.22601 25.5322 13.24 25.5322C13.7752 25.532 14.3024 25.4024 14.7767 25.1544C15.251 24.9065 15.6584 24.5476 15.964 24.1082" stroke="#606B7F" stroke-width="3" stroke-linecap="round" stroke-linejoin="round"/>
</svg>
