<svg width="48" height="48" viewBox="0 0 48 48" fill="none" xmlns="http://www.w3.org/2000/svg">
<path d="M37.2581 10.7423C35.5198 8.98871 33.4522 7.59571 31.1741 6.6433C28.8959 5.6909 26.4521 5.19783 23.983 5.19243C21.5138 5.18702 19.0678 5.66937 16.7856 6.6118C14.5033 7.55422 12.4296 8.93815 10.6836 10.6841C8.93766 12.4301 7.55373 14.5038 6.61131 16.786C5.66889 19.0683 5.18653 21.5143 5.19194 23.9834C5.19735 26.4526 5.69041 28.8964 6.64281 31.1746C7.59522 33.4527 8.98822 35.5203 10.7418 37.2586C12.4802 39.0122 14.5477 40.4052 16.8258 41.3576C19.104 42.31 21.5478 42.8031 24.017 42.8085C26.4862 42.8139 28.9321 42.3315 31.2144 41.3891C33.4966 40.4467 35.5703 39.0627 37.3163 37.3168C39.0623 35.5708 40.4462 33.4971 41.3886 31.2149C42.331 28.9326 42.8134 26.4866 42.808 24.0175C42.8026 21.5483 42.3095 19.1045 41.3571 16.8263C40.4047 14.5482 39.0117 12.4806 37.2581 10.7423ZM19.6331 24.7504H28.3668L31.6068 31.7723C31.0182 31.3402 30.3459 31.0357 29.633 30.8781C28.92 30.7205 28.182 30.7134 27.4661 30.8572C26.7502 31.0011 26.0722 31.2926 25.4754 31.7133C24.8785 32.134 24.376 32.6746 24 33.3004C23.6239 32.6746 23.1214 32.134 22.5246 31.7133C21.9277 31.2926 21.2497 31.0011 20.5338 30.8572C19.818 30.7134 19.0799 30.7205 18.367 30.8781C17.654 31.0357 16.9817 31.3402 16.3931 31.7723L19.6331 24.7504ZM20.3268 23.2504L24 15.2911L27.6731 23.2504H20.3268ZM24.75 36.0004C24.75 35.0059 25.145 34.0521 25.8483 33.3488C26.5516 32.6455 27.5054 32.2504 28.5 32.2504C29.4945 32.2504 30.4483 32.6455 31.1516 33.3488C31.8549 34.0521 32.25 35.0059 32.25 36.0004V39.1561C29.9425 40.4145 27.3762 41.1248 24.75 41.2317V36.0004ZM15.75 36.0004C15.75 35.0059 16.145 34.0521 16.8483 33.3488C17.5516 32.6455 18.5054 32.2504 19.5 32.2504C20.4945 32.2504 21.4483 32.6455 22.1516 33.3488C22.8549 34.0521 23.25 35.0059 23.25 36.0004V41.2317C20.6238 41.1248 18.0575 40.4145 15.75 39.1561V36.0004ZM36.1968 36.1973C35.4453 36.9491 34.6263 37.6301 33.75 38.2317V33.0004C33.7494 32.8917 33.7257 32.7844 33.6806 32.6854L24.6806 13.1854C24.6205 13.0556 24.5244 12.9456 24.4038 12.8685C24.2832 12.7914 24.1431 12.7505 24 12.7505C23.8568 12.7505 23.7167 12.7914 23.5961 12.8685C23.4755 12.9456 23.3795 13.0556 23.3193 13.1854L14.3193 32.6854C14.2742 32.7844 14.2505 32.8917 14.25 33.0004V38.2317C13.3769 37.6296 12.561 36.9486 11.8125 36.1973C9.3998 33.7849 7.7567 30.7113 7.09094 27.3651C6.42518 24.0188 6.76667 20.5503 8.07222 17.3982C9.37777 14.246 11.5887 11.5518 14.4255 9.6563C17.2623 7.76076 20.5975 6.74901 24.0093 6.74901C27.4211 6.74901 30.7563 7.76076 33.5931 9.6563C36.4299 11.5518 38.6409 14.246 39.9464 17.3982C41.252 20.5503 41.5935 24.0188 40.9277 27.3651C40.262 30.7113 38.6189 33.7849 36.2062 36.1973H36.1968Z" fill="#606B7F"/>
</svg>
