<svg width="48" height="48" viewBox="0 0 48 48" fill="none" xmlns="http://www.w3.org/2000/svg">
<path d="M24 38.02L24.02 37.998" stroke="#606B7F" stroke-width="3" stroke-linecap="round" stroke-linejoin="round"/>
<path d="M36 36V42.8C36 42.9576 35.969 43.1136 35.9087 43.2592C35.8484 43.4048 35.76 43.5371 35.6485 43.6485C35.5371 43.76 35.4048 43.8484 35.2592 43.9087C35.1136 43.969 34.9576 44 34.8 44H13.2C13.0424 44 12.8864 43.969 12.7408 43.9087C12.5952 43.8484 12.4629 43.76 12.3515 43.6485C12.24 43.5371 12.1517 43.4048 12.0913 43.2592C12.031 43.1136 12 42.9576 12 42.8V36M36 12V5.2C36 4.88174 35.8736 4.57652 35.6485 4.35147C35.4235 4.12643 35.1183 4 34.8 4H13.2C12.8817 4 12.5765 4.12643 12.3515 4.35147C12.1264 4.57652 12 4.88174 12 5.2V12" stroke="#606B7F" stroke-width="3" stroke-linecap="round"/>
<path d="M31 17L38 24L31 31M17 17L10 24L17 31" stroke="#606B7F" stroke-width="3" stroke-linecap="round" stroke-linejoin="round"/>
</svg>
