<svg width="48" height="48" viewBox="0 0 48 48" fill="none" xmlns="http://www.w3.org/2000/svg">
<path d="M5.146 16.926L22.464 8.26796C22.6305 8.18486 22.8139 8.1416 23 8.1416C23.186 8.1416 23.3695 8.18486 23.536 8.26796L40.854 16.928C41.0532 17.0277 41.2206 17.1809 41.3377 17.3704C41.4547 17.5599 41.5167 17.7782 41.5167 18.001C41.5167 18.2237 41.4547 18.442 41.3377 18.6315C41.2206 18.821 41.0532 18.9742 40.854 19.074L23.536 27.732C23.3695 27.8151 23.186 27.8583 23 27.8583C22.8139 27.8583 22.6305 27.8151 22.464 27.732L5.146 19.072C4.94683 18.9722 4.77936 18.819 4.66231 18.6295C4.54527 18.44 4.48328 18.2217 4.48328 17.999C4.48328 17.7762 4.54527 17.5579 4.66231 17.3684C4.77936 17.1789 4.94683 17.0257 5.146 16.926Z" stroke="#606B7F" stroke-width="3" stroke-linecap="round" stroke-linejoin="round"/>
<path d="M45 26V19L41 17M9 21V31.824C8.99985 32.5808 9.21438 33.322 9.61867 33.9617C10.023 34.6014 10.6004 35.1134 11.284 35.438L21.284 40.186C21.8202 40.4407 22.4064 40.5728 23 40.5728C23.5936 40.5728 24.1798 40.4407 24.716 40.186L34.716 35.438C35.3996 35.1134 35.977 34.6014 36.3813 33.9617C36.7856 33.322 37.0001 32.5808 37 31.824V21" stroke="#606B7F" stroke-width="3" stroke-linecap="round" stroke-linejoin="round"/>
</svg>
