<svg width="48" height="48" viewBox="0 0 48 48" fill="none" xmlns="http://www.w3.org/2000/svg">
<path d="M8.46 42V20.46H6V11.618H16.284C15.8867 11.266 15.612 10.8493 15.46 10.368C15.308 9.88534 15.232 9.37867 15.232 8.848C15.232 7.524 15.6953 6.398 16.622 5.47C17.5487 4.542 18.6747 4.078 20 4.078C20.7667 4.078 21.4707 4.258 22.112 4.618C22.752 4.978 23.3047 5.44667 23.77 6.024C24.234 5.43867 24.786 4.968 25.426 4.612C26.066 4.256 26.77 4.078 27.538 4.078C28.8633 4.078 29.99 4.54134 30.918 5.468C31.846 6.39467 32.3093 7.52067 32.308 8.846C32.308 9.366 32.2293 9.868 32.072 10.352C31.9147 10.836 31.642 11.2573 31.254 11.616H42V20.462H39.54V42H8.46ZM25.576 6.874C25.0387 7.40467 24.77 8.062 24.77 8.846C24.77 9.63 25.0353 10.288 25.566 10.82C26.0967 11.352 26.754 11.6173 27.538 11.616C28.322 11.6147 28.98 11.3493 29.512 10.82C30.044 10.2907 30.3093 9.63267 30.308 8.846C30.3067 8.05934 30.038 7.402 29.502 6.874C28.966 6.346 28.3113 6.08067 27.538 6.078C26.7647 6.07534 26.11 6.34067 25.574 6.874M17.23 8.846C17.23 9.63134 17.4987 10.2893 18.036 10.82C18.5733 11.3507 19.228 11.616 20 11.616C20.772 11.616 21.4267 11.3507 21.964 10.82C22.5013 10.2893 22.77 9.63134 22.77 8.846C22.77 8.06067 22.504 7.40334 21.972 6.874C21.44 6.34467 20.7827 6.07934 20 6.078C19.2173 6.07667 18.56 6.342 18.028 6.874C17.496 7.406 17.2307 8.06334 17.232 8.846M8 13.616V18.46H23V13.616H8ZM23 40V20.46H10.46V40H23ZM25 40H37.54V20.46H25V40ZM40 18.46V13.618H25V18.46H40Z" fill="#606B7F"/>
</svg>
