<svg width="48" height="48" viewBox="0 0 48 48" fill="none" xmlns="http://www.w3.org/2000/svg">
<g clip-path="url(#clip0_245_577)">
<path d="M17.6 36.7776L18.9312 35.888C18.7849 35.6692 18.5868 35.4899 18.3546 35.366C18.1224 35.2421 17.8632 35.1774 17.6 35.1776V36.7776ZM24 46.3712L22.6688 47.2576C22.8149 47.4767 23.0129 47.6564 23.2451 47.7807C23.4773 47.9049 23.7366 47.97 24 47.97C24.2634 47.97 24.5227 47.9049 24.7549 47.7807C24.9871 47.6564 25.1851 47.4767 25.3312 47.2576L24 46.3712ZM30.4 36.7776V35.1776C30.1368 35.1774 29.8776 35.2421 29.6454 35.366C29.4132 35.4899 29.2151 35.6692 29.0688 35.888L30.4 36.7776ZM22.4 25.6L21.2672 26.7328L22.4768 27.9392L23.6032 26.6528L22.4 25.6ZM16.2688 37.664L22.6688 47.2576L25.3312 45.4816L18.9312 35.888L16.2688 37.664ZM25.3312 47.2576L31.7312 37.664L29.0688 35.888L22.6688 45.4816L25.3312 47.2576ZM30.4 38.3776H43.2V35.1776H30.4V38.3776ZM43.2 38.3776C45.8528 38.3776 48 36.2336 48 33.5776H44.8C44.8 34.464 44.0864 35.1776 43.2 35.1776V38.3776ZM48 33.5776V4.8H44.8V33.5808L48 33.5776ZM48 4.8C48 2.144 45.8528 0 43.2 0V3.2C44.0864 3.2 44.8 3.9136 44.8 4.8H48ZM43.2 0H4.8V3.2H43.2V0ZM4.8 0C2.1472 0 0 2.144 0 4.8H3.2C3.2 3.9136 3.9136 3.2 4.8 3.2V0ZM0 4.8V33.5808H3.2V4.7968L0 4.8ZM0 33.5808C0 36.2336 2.1472 38.3776 4.8 38.3776V35.1776C4.37565 35.1776 3.96869 35.009 3.66863 34.709C3.36857 34.4089 3.2 34.0019 3.2 33.5776L0 33.5808ZM4.8 38.3776H17.6V35.1776H4.8V38.3776ZM14.8672 20.3296L21.2672 26.7296L23.5328 24.4672L17.1328 18.0672L14.8672 20.3296ZM23.6032 26.6528L34.8032 13.8528L32.3968 11.7472L21.1968 24.5472L23.6032 26.6528Z" fill="#606B7F"/>
</g>
<defs>
<clipPath id="clip0_245_577">
<rect width="48" height="48" fill="white"/>
</clipPath>
</defs>
</svg>
