<svg width="48" height="48" viewBox="0 0 48 48" fill="none" xmlns="http://www.w3.org/2000/svg">
<path d="M38.618 30.3999C38.8847 30.3999 39.116 30.4972 39.312 30.6919L42.5 33.8919C42.6947 34.0865 42.792 34.3225 42.792 34.5999C42.792 34.8772 42.6947 35.1132 42.5 35.3079C42.3053 35.5025 42.0693 35.5999 41.792 35.5999C41.5147 35.5999 41.2787 35.5025 41.084 35.3079L37.884 32.1179C37.6893 31.9232 37.5987 31.6859 37.612 31.4059C37.6253 31.1259 37.7287 30.8879 37.922 30.6919C38.1153 30.4959 38.3473 30.3985 38.618 30.3999ZM39.6 8.17587C39.6 8.45587 39.5027 8.69321 39.308 8.88787L36.12 12.0799C35.9253 12.2745 35.694 12.3719 35.426 12.3719C35.158 12.3719 34.9267 12.2745 34.732 12.0799C34.536 11.8839 34.438 11.6459 34.438 11.3659C34.438 11.0859 34.536 10.8479 34.732 10.6519L37.892 7.46388C38.0867 7.26921 38.3227 7.17188 38.6 7.17188C38.8773 7.17188 39.1133 7.26921 39.308 7.46388C39.5027 7.65854 39.6 7.89654 39.6 8.17788M9.40601 7.20788C9.68601 7.20788 9.92334 7.30521 10.118 7.49988L13.308 10.6599C13.5027 10.8559 13.6 11.0925 13.6 11.3699C13.6 11.6459 13.5027 11.8819 13.308 12.0779C13.1133 12.2725 12.8753 12.3699 12.594 12.3699C12.314 12.3699 12.0767 12.2725 11.882 12.0779L8.69201 8.88787C8.49734 8.69321 8.40001 8.46188 8.40001 8.19388C8.40001 7.92588 8.49734 7.69454 8.69201 7.49988C8.88667 7.30521 9.12467 7.20788 9.40601 7.20788ZM10.368 31.4259C10.368 31.6925 10.2707 31.9239 10.076 32.1199L6.88801 35.3079C6.69334 35.5025 6.46201 35.5999 6.19401 35.5999C5.92601 35.5999 5.69467 35.5025 5.50001 35.3079C5.30534 35.1132 5.20801 34.8752 5.20801 34.5939C5.20801 34.3125 5.30534 34.0745 5.50001 33.8799L8.66001 30.6919C8.85601 30.4972 9.09267 30.4059 9.37001 30.4179C9.64601 30.4312 9.88201 30.5359 10.078 30.7319C10.2727 30.9265 10.368 31.1579 10.368 31.4259ZM15.93 35.7659L24 30.9259L32.108 35.8539L29.996 26.6939L37.084 20.5839L27.746 19.7439L24 11.0939L20.292 19.6899L10.954 20.4939L18.042 26.6899L15.93 35.7659ZM24 33.3199L14.97 38.7399C14.7567 38.8452 14.5593 38.8879 14.378 38.8679C14.1953 38.8465 14.018 38.7839 13.846 38.6799C13.674 38.5732 13.5433 38.4225 13.454 38.2279C13.3647 38.0305 13.3567 37.8179 13.43 37.5899L15.824 27.4479L7.85801 20.5599C7.67801 20.4132 7.56601 20.2379 7.52201 20.0339C7.47667 19.8312 7.49534 19.6359 7.57801 19.4479C7.66067 19.2599 7.77067 19.1072 7.90801 18.9899C8.04534 18.8725 8.23201 18.7932 8.46801 18.7519L18.938 17.8639L23.034 8.23188C23.1247 8.01188 23.2553 7.85321 23.426 7.75588C23.5967 7.65854 23.788 7.61054 24 7.61188C24.212 7.61321 24.404 7.66187 24.576 7.75787C24.748 7.85387 24.878 8.01254 24.966 8.23388L29.1 17.8659L39.57 18.7539C39.806 18.7939 39.9927 18.8739 40.13 18.9939C40.2687 19.1099 40.3793 19.2619 40.462 19.4499C40.5447 19.6379 40.5633 19.8332 40.518 20.0359C40.4727 20.2399 40.36 20.4152 40.18 20.5619L32.216 27.4499L34.608 37.6299C34.6827 37.8579 34.6747 38.0639 34.584 38.2479C34.4933 38.4319 34.3627 38.5765 34.192 38.6819C34.02 38.7859 33.8433 38.8479 33.662 38.8679C33.4793 38.8892 33.2813 38.8472 33.068 38.7419L24 33.3199Z" fill="#606B7F"/>
</svg>
