<svg width="48" height="48" viewBox="0 0 48 48" fill="none" xmlns="http://www.w3.org/2000/svg">
<path d="M40.9237 15.9168C42.9425 20.1312 43.3175 24.9468 41.9755 29.423C40.6336 33.8991 37.6711 37.7141 33.6667 40.1228C29.6624 42.5315 24.9039 43.3607 20.3208 42.4486C15.7377 41.5364 11.6594 38.9484 8.8824 35.1901C6.10543 31.4318 4.82937 26.7732 5.3035 22.1244C5.77764 17.4755 7.9679 13.1704 11.4464 10.0501C14.9249 6.92979 19.4418 5.2184 24.1146 5.25026C28.7875 5.28213 33.2806 7.05496 36.7162 10.2224L41.4694 5.4693C41.5391 5.39962 41.6218 5.34435 41.7128 5.30663C41.8039 5.26892 41.9014 5.24951 42 5.24951C42.0985 5.24951 42.1961 5.26892 42.2872 5.30663C42.3782 5.34435 42.4609 5.39962 42.5306 5.4693C42.6003 5.53899 42.6556 5.62171 42.6933 5.71276C42.731 5.8038 42.7504 5.90138 42.7504 5.99993C42.7504 6.09847 42.731 6.19606 42.6933 6.2871C42.6556 6.37815 42.6003 6.46087 42.5306 6.53055L24.5306 24.5306C24.3899 24.6713 24.199 24.7503 24 24.7503C23.801 24.7503 23.6101 24.6713 23.4694 24.5306C23.3286 24.3898 23.2496 24.199 23.2496 23.9999C23.2496 23.8009 23.3286 23.61 23.4694 23.4693L29.2819 17.6568C27.8241 16.4435 25.9928 15.7695 24.0962 15.7483C22.1997 15.7271 20.3538 16.3601 18.8693 17.5406C17.3848 18.721 16.3524 20.377 15.9459 22.2295C15.5394 24.0821 15.7836 26.0182 16.6374 27.7118C17.4912 29.4054 18.9025 30.753 20.6337 31.5279C22.3648 32.3028 24.3101 32.4575 26.1419 31.966C27.9738 31.4745 29.5804 30.3669 30.6912 28.8295C31.802 27.2922 32.3492 25.4191 32.2406 23.5256C32.235 23.4271 32.2487 23.3284 32.2812 23.2353C32.3137 23.1421 32.3642 23.0562 32.4298 22.9826C32.4954 22.9089 32.5749 22.8489 32.6638 22.806C32.7526 22.7631 32.849 22.7381 32.9475 22.7324C33.046 22.7268 33.1446 22.7406 33.2378 22.773C33.3309 22.8055 33.4168 22.856 33.4905 22.9216C33.5641 22.9872 33.6241 23.0667 33.667 23.1556C33.7099 23.2444 33.735 23.3408 33.7406 23.4393C33.8701 25.683 33.2204 27.9025 31.9016 29.7223C30.5828 31.5421 28.6758 32.8504 26.5033 33.4258C24.3308 34.0013 22.0262 33.8085 19.9795 32.8802C17.9328 31.9519 16.2696 30.345 15.2714 28.3315C14.2731 26.3179 14.0012 24.0213 14.5015 21.8303C15.0018 19.6393 16.2436 17.6884 18.0169 16.3077C19.7902 14.927 21.9861 14.2014 24.2329 14.2535C26.4797 14.3056 28.6395 15.1323 30.3469 16.5937L35.6606 11.2818C32.3326 8.25363 27.9531 6.64568 23.4562 6.80092C18.9594 6.95616 14.7012 8.86231 11.5899 12.1128C8.47862 15.3633 6.76054 19.7007 6.80212 24.2001C6.8437 28.6994 8.64166 33.0044 11.8125 36.1968C14.6919 39.0656 18.4919 40.8254 22.5422 41.1659C26.5925 41.5064 30.633 40.4058 33.951 38.0581C37.269 35.7103 39.6514 32.2664 40.6781 28.3336C41.7047 24.4008 41.3096 20.2318 39.5625 16.5618C39.5173 16.4726 39.4904 16.3752 39.4834 16.2754C39.4763 16.1756 39.4894 16.0755 39.5216 15.9808C39.5539 15.8861 39.6048 15.7988 39.6713 15.7241C39.7378 15.6494 39.8186 15.5888 39.9089 15.5457C39.9992 15.5027 40.0972 15.4782 40.1971 15.4736C40.2971 15.469 40.3969 15.4845 40.4908 15.519C40.5846 15.5536 40.6706 15.6066 40.7437 15.6749C40.8168 15.7432 40.8754 15.8255 40.9162 15.9168H40.9237Z" fill="#606B7F"/>
</svg>
