<svg width="48" height="48" viewBox="0 0 48 48" fill="none" xmlns="http://www.w3.org/2000/svg">
<path d="M39 36.0074H9C8.20435 36.0074 7.44129 35.6914 6.87868 35.1288C6.31607 34.5662 6 33.8031 6 33.0074V12.0074C6 11.2118 6.31607 10.4487 6.87868 9.88613C7.44129 9.32352 8.20435 9.00745 9 9.00745H39C39.7956 9.00745 40.5587 9.32352 41.1213 9.88613C41.6839 10.4487 42 11.2118 42 12.0074V33.0074C41.9988 33.8027 41.6824 34.5651 41.12 35.1275C40.5577 35.6898 39.7953 36.0063 39 36.0074ZM9 12.0074V33.0074H39V12.0074H9ZM3 39.0074H45V42.0074H3V39.0074Z" fill="#606B7F"/>
</svg>
