<svg width="48" height="48" viewBox="0 0 48 48" fill="none" xmlns="http://www.w3.org/2000/svg">
<path d="M13.078 27H15.078C15.3087 25.0333 16.2047 23.3747 17.766 22.024C19.326 20.6747 21.1707 20 23.3 20C24.6547 20 26.0987 20.4353 27.632 21.306C29.1653 22.1767 30.432 23.408 31.432 25H26.846V27H34.846V19H32.846V23.56C31.626 21.68 30.1327 20.2833 28.366 19.37C26.602 18.4567 24.9133 18 23.3 18C20.5947 18 18.2847 18.868 16.37 20.604C14.4553 22.34 13.3567 24.472 13.078 27ZM24.008 42C21.52 42 19.18 41.528 16.988 40.584C14.7973 39.6387 12.8913 38.356 11.27 36.736C9.64867 35.116 8.36534 33.212 7.42 31.024C6.47467 28.836 6.00134 26.4967 6 24.006C5.99867 21.5153 6.47134 19.1753 7.418 16.986C8.362 14.7953 9.64267 12.8893 11.26 11.268C12.8773 9.64667 14.782 8.36333 16.974 7.418C19.166 6.47267 21.506 6 23.994 6C26.482 6 28.822 6.47267 31.014 7.418C33.2047 8.362 35.1107 9.64333 36.732 11.262C38.3533 12.8807 39.6367 14.7853 40.582 16.976C41.5273 19.1667 42 21.506 42 23.994C42 26.482 41.528 28.822 40.584 31.014C39.64 33.206 38.3573 35.112 36.736 36.732C35.1147 38.352 33.2107 39.6353 31.024 40.582C28.8373 41.5287 26.5 42.0013 24.008 42ZM24 40C28.4667 40 32.25 38.45 35.35 35.35C38.45 32.25 40 28.4667 40 24C40 19.5333 38.45 15.75 35.35 12.65C32.25 9.55 28.4667 8 24 8C19.5333 8 15.75 9.55 12.65 12.65C9.55 15.75 8 19.5333 8 24C8 28.4667 9.55 32.25 12.65 35.35C15.75 38.45 19.5333 40 24 40Z" fill="#606B7F"/>
</svg>
