<svg width="48" height="48" viewBox="0 0 48 48" fill="none" xmlns="http://www.w3.org/2000/svg">
<path d="M15.4 24.354L21.396 20L15.4 15.646L14.368 17.086L18.376 20L14.372 22.916L15.4 24.354ZM32.6 24.354L33.632 22.914L29.628 20L33.63 17.084L32.6 15.646L26.604 20L32.6 24.354ZM21 33.254L24 30.254L27 33.254L30 30.254L31.95 32.204L33.204 30.95L30 27.746L27 30.746L24 27.746L21 30.746L18 27.746L14.796 30.95L16.05 32.204L18 30.254L21 33.254ZM16.986 40.584C14.7953 39.6387 12.8893 38.356 11.268 36.736C9.64667 35.116 8.36333 33.212 7.418 31.024C6.47267 28.836 6 26.4967 6 24.006C6 21.5153 6.47267 19.1753 7.418 16.986C8.362 14.7953 9.64267 12.8893 11.26 11.268C12.8773 9.64667 14.782 8.36333 16.974 7.418C19.166 6.47267 21.506 6 23.994 6C26.482 6 28.822 6.47267 31.014 7.418C33.2047 8.362 35.1107 9.64333 36.732 11.262C38.3533 12.8807 39.6367 14.7853 40.582 16.976C41.5273 19.1667 42 21.506 42 23.994C42 26.482 41.528 28.822 40.584 31.014C39.64 33.206 38.3573 35.112 36.736 36.732C35.1147 38.352 33.2107 39.6353 31.024 40.582C28.8373 41.5287 26.498 42.0013 24.006 42C21.514 41.9987 19.174 41.5267 16.986 40.584ZM35.35 35.35C38.45 32.25 40 28.4667 40 24C40 19.5333 38.45 15.75 35.35 12.65C32.25 9.55 28.4667 8 24 8C19.5333 8 15.75 9.55 12.65 12.65C9.55 15.75 8 19.5333 8 24C8 28.4667 9.55 32.25 12.65 35.35C15.75 38.45 19.5333 40 24 40C28.4667 40 32.25 38.45 35.35 35.35Z" fill="#606B7F"/>
</svg>
