<svg width="48" height="48" viewBox="0 0 48 48" fill="none" xmlns="http://www.w3.org/2000/svg">
<path d="M24 43.154L18.846 38H11.23C10.31 38 9.54134 37.692 8.924 37.076C8.30667 36.46 7.99867 35.6907 8 34.768V9.232C8 8.31067 8.30867 7.542 8.926 6.926C9.54334 6.31 10.312 6.00133 11.232 6H36.77C37.69 6 38.4587 6.30867 39.076 6.926C39.6933 7.54333 40.0013 8.312 40 9.232V34.77C40 35.69 39.692 36.4587 39.076 37.076C38.46 37.6933 37.6907 38.0013 36.768 38H29.154L24 43.154ZM10 34.47C11.8 32.7033 13.892 31.3113 16.276 30.294C18.66 29.2767 21.2347 28.768 24 28.768C26.7653 28.768 29.3407 29.2767 31.726 30.294C34.1113 31.3113 36.2027 32.7033 38 34.47V9.23C38 8.92333 37.872 8.64133 37.616 8.384C37.36 8.12667 37.0773 7.99867 36.768 8H11.232C10.924 8 10.6413 8.128 10.384 8.384C10.1267 8.64 9.99867 8.922 10 9.23V34.47ZM28.258 22.41C29.4193 21.25 30 19.8313 30 18.154C30 16.4767 29.4193 15.0573 28.258 13.896C27.0967 12.7347 25.6773 12.154 24 12.154C22.3227 12.154 20.9033 12.7347 19.742 13.896C18.5807 15.0573 18 16.4767 18 18.154C18 19.8313 18.5807 21.2507 19.742 22.412C20.9033 23.5733 22.3227 24.154 24 24.154C25.6773 24.154 27.0967 23.5733 28.258 22.412M11.77 36H36.23V35.654C34.4713 34.0007 32.556 32.7733 30.484 31.972C28.412 31.1707 26.2507 30.77 24 30.77C21.8 30.77 19.658 31.164 17.574 31.952C15.49 32.74 13.5547 33.9487 11.768 35.578L11.77 36ZM21.182 20.972C20.394 20.1827 20 19.2433 20 18.154C20 17.0647 20.394 16.1253 21.182 15.336C21.97 14.5467 22.9093 14.1527 24 14.154C25.0907 14.1553 26.03 14.5493 26.818 15.336C27.606 16.1253 28 17.0647 28 18.154C28 19.2433 27.606 20.1827 26.818 20.972C26.03 21.7613 25.0907 22.1553 24 22.154C22.9093 22.1527 21.97 21.7587 21.182 20.972Z" fill="#606B7F"/>
</svg>
