<svg width="48" height="48" viewBox="0 0 48 48" fill="none" xmlns="http://www.w3.org/2000/svg">
<path d="M17.25 4.50048V3.00048C17.25 2.80157 17.329 2.6108 17.4697 2.47015C17.6103 2.3295 17.8011 2.25048 18 2.25048C18.1989 2.25048 18.3897 2.3295 18.5303 2.47015C18.671 2.6108 18.75 2.80157 18.75 3.00048V4.50048C18.75 4.69939 18.671 4.89016 18.5303 5.03081C18.3897 5.17146 18.1989 5.25048 18 5.25048C17.8011 5.25048 17.6103 5.17146 17.4697 5.03081C17.329 4.89016 17.25 4.69939 17.25 4.50048ZM2.99999 18.7505H4.49999C4.6989 18.7505 4.88967 18.6715 5.03032 18.5308C5.17097 18.3902 5.24999 18.1994 5.24999 18.0005C5.24999 17.8016 5.17097 17.6108 5.03032 17.4701C4.88967 17.3295 4.6989 17.2505 4.49999 17.2505H2.99999C2.80108 17.2505 2.61031 17.3295 2.46966 17.4701C2.32901 17.6108 2.24999 17.8016 2.24999 18.0005C2.24999 18.1994 2.32901 18.3902 2.46966 18.5308C2.61031 18.6715 2.80108 18.7505 2.99999 18.7505ZM23.6644 6.67173C23.7525 6.71587 23.8485 6.7422 23.9468 6.74922C24.0451 6.75624 24.1439 6.74381 24.2374 6.71264C24.3309 6.68147 24.4173 6.63217 24.4918 6.56756C24.5662 6.50295 24.6272 6.4243 24.6712 6.33611L26.1712 3.33611C26.2603 3.15808 26.2749 2.95198 26.212 2.76316C26.149 2.57433 26.0136 2.41824 25.8356 2.32923C25.6576 2.24022 25.4515 2.22557 25.2627 2.28851C25.0738 2.35145 24.9178 2.48683 24.8287 2.66486L23.3287 5.66486C23.2846 5.75299 23.2583 5.84897 23.2513 5.94729C23.2442 6.04561 23.2567 6.14435 23.2878 6.23787C23.319 6.33138 23.3683 6.41783 23.4329 6.49228C23.4975 6.56672 23.5762 6.62771 23.6644 6.67173ZM5.66437 23.3292L2.66437 24.8292C2.48634 24.9182 2.35097 25.0743 2.28802 25.2632C2.22508 25.452 2.23973 25.6581 2.32874 25.8361C2.41776 26.0141 2.57384 26.1495 2.76267 26.2124C2.9515 26.2754 3.15759 26.2607 3.33562 26.1717L6.33562 24.6717C6.51364 24.5827 6.64902 24.4266 6.71196 24.2378C6.7749 24.049 6.76026 23.8429 6.67124 23.6649C6.58223 23.4868 6.42614 23.3515 6.23732 23.2885C6.04849 23.2256 5.84239 23.2402 5.66437 23.3292ZM40.5919 35.0311C40.8016 35.2401 40.9681 35.4885 41.0816 35.762C41.1952 36.0355 41.2536 36.3287 41.2536 36.6249C41.2536 36.921 41.1952 37.2142 41.0816 37.4877C40.9681 37.7612 40.8016 38.0096 40.5919 38.2186L38.2125 40.5924C38.0035 40.8021 37.7551 40.9685 37.4816 41.0821C37.2081 41.1957 36.9149 41.2541 36.6187 41.2541C36.3226 41.2541 36.0294 41.1957 35.7559 41.0821C35.4824 40.9685 35.234 40.8021 35.025 40.5924L25.4044 30.9717C25.3187 30.8839 25.2124 30.8188 25.0952 30.7825C24.9779 30.7461 24.8535 30.7397 24.7331 30.7636C24.6154 30.7861 24.5047 30.8365 24.4104 30.9105C24.3161 30.9846 24.241 31.0801 24.1912 31.1892L20.8575 39.8724C20.854 39.8827 20.8496 39.8928 20.8444 39.9024C20.6731 40.3028 20.3878 40.6441 20.0242 40.8838C19.6604 41.1235 19.2343 41.251 18.7987 41.2505H18.6881C18.2333 41.231 17.7955 41.0726 17.4334 40.7967C17.0714 40.5208 16.8026 40.1407 16.6631 39.7074L6.86249 9.69048C6.73696 9.29709 6.72212 8.87674 6.81957 8.47547C6.91703 8.07421 7.12303 7.7075 7.41502 7.41551C7.70701 7.12352 8.07372 6.91752 8.47499 6.82006C8.87625 6.7226 9.2966 6.73745 9.68999 6.86298L39.705 16.6636C40.134 16.8084 40.5094 17.0792 40.782 17.4407C41.0546 17.8022 41.2118 18.2375 41.2331 18.6898C41.2544 19.1421 41.1387 19.5903 40.9012 19.9757C40.6637 20.3612 40.3154 20.6661 39.9019 20.8505L39.8719 20.8636L31.1887 24.1974C31.0785 24.2476 30.982 24.3237 30.9076 24.4194C30.8332 24.515 30.783 24.6272 30.7615 24.7465C30.7399 24.8657 30.7476 24.9884 30.7838 25.1041C30.82 25.2197 30.8837 25.3248 30.9694 25.4105L40.5919 35.0311ZM39.5306 36.0924L29.91 26.4699C29.6507 26.2106 29.4587 25.8918 29.3507 25.5414C29.2428 25.191 29.2221 24.8195 29.2904 24.4592C29.3588 24.0989 29.5142 23.7609 29.7431 23.4744C29.972 23.1879 30.2675 22.9617 30.6037 22.8155L30.6337 22.8042L39.3169 19.4686C39.4526 19.4066 39.5664 19.3051 39.6435 19.1774C39.7205 19.0496 39.7572 18.9016 39.7487 18.7526C39.7402 18.6037 39.6869 18.4608 39.5958 18.3426C39.5047 18.2245 39.38 18.1366 39.2381 18.0905L9.22499 8.28986C9.09468 8.24973 8.9559 8.24589 8.82357 8.27874C8.69124 8.3116 8.57036 8.3799 8.47395 8.47631C8.37754 8.57273 8.30923 8.6936 8.27638 8.82593C8.24353 8.95826 8.24737 9.09704 8.28749 9.22736L18.09 39.2386C18.1395 39.3776 18.2288 39.4989 18.3469 39.5874C18.465 39.6759 18.6066 39.7275 18.7539 39.7359C18.9012 39.7444 19.0477 39.7091 19.1751 39.6347C19.3024 39.5602 19.405 39.4498 19.47 39.3174L22.8037 30.6342C22.8072 30.6239 22.8116 30.6138 22.8169 30.6042C22.9631 30.2683 23.1891 29.9731 23.4754 29.7443C23.7616 29.5156 24.0994 29.3602 24.4594 29.2917C24.5978 29.2655 24.7384 29.2523 24.8794 29.2524C25.1751 29.2524 25.4678 29.3107 25.741 29.4239C26.0141 29.5372 26.2623 29.7031 26.4712 29.9124L36.0919 39.533C36.2325 39.6732 36.423 39.752 36.6216 39.752C36.8202 39.752 37.0106 39.6732 37.1512 39.533L39.5306 37.1536C39.6003 37.084 39.6557 37.0012 39.6934 36.9102C39.7312 36.8191 39.7506 36.7215 39.7506 36.623C39.7506 36.5244 39.7312 36.4268 39.6934 36.3358C39.6557 36.2447 39.6003 36.162 39.5306 36.0924Z" fill="#606B7F"/>
</svg>
