<svg width="48" height="48" viewBox="0 0 48 48" fill="none" xmlns="http://www.w3.org/2000/svg">
<path d="M20.0001 4.5C15.8081 4.5 12.3421 7.82 12.3421 12C12.3421 16.18 15.8081 19.5 20.0001 19.5C24.1921 19.5 27.6581 16.18 27.6581 12C27.6581 7.82 24.1921 4.5 20.0001 4.5ZM15.3421 12C15.3421 9.552 17.3901 7.5 20.0001 7.5C22.6101 7.5 24.6581 9.552 24.6581 12C24.6581 14.448 22.6101 16.5 20.0001 16.5C17.3901 16.5 15.3421 14.448 15.3421 12ZM14.1741 23.72C14.3021 23.684 14.5781 23.698 14.9421 23.932C15.9661 24.596 17.7421 25.472 20.0001 25.472C22.2581 25.472 24.0341 24.596 25.0601 23.932C25.4201 23.698 25.6981 23.684 25.8261 23.718C26.1127 23.798 26.3981 23.8833 26.6821 23.974L28.6521 24.604C29.027 24.7119 29.4292 24.6694 29.7734 24.4857C30.1175 24.3019 30.3765 23.9913 30.4954 23.6197C30.6144 23.2481 30.5838 22.8448 30.4103 22.4954C30.2368 22.1459 29.934 21.8778 29.5661 21.748L27.5981 21.116C27.2741 21.0133 26.9487 20.9167 26.6221 20.826C25.3981 20.49 24.2361 20.892 23.4301 21.414C22.6901 21.894 21.4821 22.472 20.0001 22.472C18.5201 22.472 17.3101 21.892 16.5701 21.412C15.7641 20.892 14.6021 20.49 13.3781 20.826C13.0514 20.9167 12.7261 21.0133 12.4021 21.116L10.4341 21.748C9.31612 22.0977 8.29504 22.7031 7.4518 23.5162C6.60855 24.3292 5.96633 25.3276 5.57607 26.432C5.42607 26.872 5.36207 27.296 5.32607 27.64L4.54807 34.986C4.22807 37.34 5.53407 39.762 8.11007 40.36C10.5081 40.916 14.3641 41.5 20.0001 41.5C20.3979 41.5 20.7794 41.342 21.0607 41.0607C21.342 40.7794 21.5001 40.3978 21.5001 40C21.5001 39.6022 21.342 39.2206 21.0607 38.9393C20.7794 38.658 20.3979 38.5 20.0001 38.5C14.5721 38.5 10.9441 37.94 8.79007 37.44C7.93607 37.24 7.37407 36.434 7.52207 35.38L7.52607 35.354L8.30807 27.954C8.33607 27.706 8.36807 27.538 8.41207 27.412C8.64975 26.7481 9.03883 26.1487 9.54845 25.6613C10.0581 25.1739 10.6742 24.8119 11.3481 24.604L13.3181 23.974C13.6021 23.8833 13.8874 23.8 14.1741 23.72ZM41.0601 32.06C41.2074 31.9227 41.3256 31.7571 41.4076 31.5731C41.4896 31.3891 41.5337 31.1905 41.5372 30.989C41.5408 30.7876 41.5038 30.5876 41.4283 30.4008C41.3529 30.214 41.2406 30.0444 41.0981 29.9019C40.9557 29.7595 40.786 29.6472 40.5993 29.5718C40.4125 29.4963 40.2124 29.4593 40.011 29.4628C39.8096 29.4664 39.611 29.5105 39.427 29.5924C39.243 29.6744 39.0774 29.7926 38.9401 29.94L32.0001 36.88L29.0601 33.94C28.9227 33.7926 28.7571 33.6744 28.5731 33.5924C28.3891 33.5105 28.1905 33.4664 27.9891 33.4628C27.7877 33.4593 27.5876 33.4963 27.4009 33.5718C27.2141 33.6472 27.0444 33.7595 26.902 33.9019C26.7596 34.0444 26.6473 34.214 26.5718 34.4008C26.4964 34.5876 26.4593 34.7876 26.4629 34.989C26.4664 35.1905 26.5105 35.3891 26.5925 35.5731C26.6745 35.7571 26.7927 35.9227 26.9401 36.06L32.0001 41.12L41.0601 32.06Z" fill="#FF98C4"/>
</svg>
