<svg width="48" height="48" viewBox="0 0 48 48" fill="none" xmlns="http://www.w3.org/2000/svg">
<path d="M19 8C22.4478 8 25.7544 9.36964 28.1924 11.8076C30.6304 14.2456 32 17.5522 32 21C32 24.24 30.82 27.2 28.86 29.46L40.16 40.76L38.74 42.18L27.44 30.88C25.0905 32.8962 22.096 34.0032 19 34C15.5522 34 12.2456 32.6304 9.80761 30.1924C7.36964 27.7544 6 24.4478 6 21C6 17.5522 7.36964 14.2456 9.80761 11.8076C12.2456 9.36964 15.5522 8 19 8ZM19 10C16.0826 10 13.2847 11.1589 11.2218 13.2218C9.15893 15.2847 8 18.0826 8 21C8 23.9174 9.15893 26.7153 11.2218 28.7782C13.2847 30.8411 16.0826 32 19 32C20.4445 32 21.8749 31.7155 23.2095 31.1627C24.5441 30.6099 25.7567 29.7996 26.7782 28.7782C27.7996 27.7567 28.6099 26.5441 29.1627 25.2095C29.7155 23.8749 30 22.4445 30 21C30 19.5555 29.7155 18.1251 29.1627 16.7905C28.6099 15.4559 27.7996 14.2433 26.7782 13.2218C25.7567 12.2004 24.5441 11.3901 23.2095 10.8373C21.8749 10.2845 20.4445 10 19 10Z" fill="#606B7F"/>
</svg>
