<svg width="48" height="48" viewBox="0 0 48 48" fill="none" xmlns="http://www.w3.org/2000/svg">
<path d="M15.54 32.46H17.584L29.432 20.716L27.284 18.568L15.538 30.316L15.54 32.46ZM30.524 19.624L32.162 17.962C32.362 17.762 32.462 17.5287 32.462 17.262C32.462 16.9953 32.362 16.762 32.162 16.562L31.438 15.838C31.238 15.638 31.0047 15.538 30.738 15.538C30.4713 15.538 30.238 15.638 30.038 15.838L28.378 17.478L30.524 19.624ZM11.23 40C10.334 40 9.57134 39.6853 8.942 39.056C8.31267 38.4267 7.99867 37.6647 8 36.77V11.23C8 10.3367 8.31467 9.57467 8.944 8.944C9.57334 8.31467 10.336 8 11.232 8H20.632C20.4493 6.97867 20.6933 6.05667 21.364 5.234C22.0333 4.41133 22.912 4 24 4C25.1133 4 26.0053 4.41133 26.676 5.234C27.3467 6.05667 27.578 6.97867 27.37 8H36.77C37.6633 8 38.4253 8.31467 39.056 8.944C39.6853 9.57333 40 10.336 40 11.232V36.77C40 37.6633 39.6853 38.4253 39.056 39.056C38.4267 39.6853 37.6647 40 36.77 40H11.23ZM11.23 38H36.768C37.0747 38 37.3567 37.872 37.614 37.616C37.8713 37.36 37.9993 37.0773 37.998 36.768V11.232C37.998 10.924 37.87 10.6413 37.614 10.384C37.358 10.1267 37.076 9.99867 36.768 10H11.232C10.924 10 10.6413 10.128 10.384 10.384C10.1267 10.64 9.99867 10.9227 10 11.232V36.77C10 37.0767 10.128 37.3587 10.384 37.616C10.64 37.8733 10.922 38.0013 11.23 38ZM25.076 8.46C25.3587 8.176 25.5 7.81733 25.5 7.384C25.5 6.95067 25.3587 6.59267 25.076 6.31C24.7933 6.02733 24.4347 5.88533 24 5.884C23.5653 5.88267 23.2073 6.02467 22.926 6.31C22.6447 6.59533 22.5027 6.95333 22.5 7.384C22.4973 7.81467 22.6393 8.17333 22.926 8.46C23.2127 8.74667 23.5707 8.888 24 8.884C24.4293 8.88 24.788 8.73867 25.076 8.46Z" fill="#606B7F"/>
</svg>
