<svg width="48" height="48" viewBox="0 0 48 48" fill="none" xmlns="http://www.w3.org/2000/svg">
<path d="M44.0306 16.7209L32.7806 5.47094C32.7109 5.40121 32.6282 5.34589 32.5372 5.30815C32.4461 5.2704 32.3485 5.25098 32.25 5.25098C32.1514 5.25098 32.0538 5.2704 31.9628 5.30815C31.8717 5.34589 31.789 5.40121 31.7193 5.47094L7.48872 29.7016C6.09053 31.1426 5.31525 33.0757 5.33029 35.0835C5.34534 37.0912 6.14952 39.0125 7.56914 40.4324C8.98877 41.8523 10.9099 42.6568 12.9177 42.6722C14.9255 42.6876 16.8587 41.9126 18.3 40.5147L39.405 19.4059L43.7362 17.9622C43.8575 17.9219 43.9664 17.8512 44.0527 17.7569C44.139 17.6627 44.1998 17.5479 44.2293 17.4236C44.2588 17.2992 44.256 17.1694 44.2212 17.0465C44.1865 16.9235 44.1208 16.8114 44.0306 16.7209ZM17.2387 39.4534C16.6681 40.024 15.9907 40.4765 15.2451 40.7852C14.4996 41.0939 13.7006 41.2528 12.8937 41.2527C12.0868 41.2526 11.2878 41.0936 10.5423 40.7847C9.79687 40.4758 9.11955 40.0231 8.54904 39.4525C7.97852 38.8819 7.52599 38.2045 7.21728 37.4589C6.90857 36.7134 6.74972 35.9144 6.74981 35.1075C6.7499 34.3006 6.90892 33.5016 7.21779 32.7561C7.52666 32.0106 7.97934 31.3333 8.54997 30.7628L14.0625 25.2428C15.7875 24.6091 18.5512 24.2903 22.1456 26.1672C24.4125 27.3503 26.4093 27.7572 28.0818 27.7572C28.3893 27.7572 28.6818 27.7403 28.9687 27.7159L17.2387 39.4534ZM38.7637 18.0391C38.6524 18.0779 38.5516 18.1421 38.4693 18.2266L30.9375 25.7603C29.2125 26.3941 26.4487 26.7128 22.8543 24.8359C20.1731 23.4353 17.8706 23.1241 16.0331 23.2853L32.25 7.06094L42.1125 16.9234L38.7637 18.0391Z" fill="#606B7F"/>
</svg>
