<svg width="48" height="48" viewBox="0 0 48 48" fill="none" xmlns="http://www.w3.org/2000/svg">
<path d="M8.25201 40.0002C7.94001 40.0002 7.66401 39.9262 7.42401 39.7782C7.18401 39.6302 6.99734 39.4349 6.86401 39.1922C6.72001 38.9535 6.64001 38.6955 6.62401 38.4182C6.61067 38.1395 6.68934 37.8589 6.86001 37.5762L22.6 10.4242C22.7707 10.1415 22.976 9.93621 23.216 9.80821C23.456 9.68021 23.7173 9.61621 24 9.61621C24.2827 9.61621 24.5433 9.68021 24.782 9.80821C25.0207 9.93621 25.226 10.1415 25.398 10.4242L41.14 37.5762C41.3107 37.8589 41.3873 38.1369 41.37 38.4102C41.3527 38.6835 41.274 38.9442 41.134 39.1922C40.994 39.4402 40.806 39.6369 40.57 39.7822C40.334 39.9275 40.0607 40.0002 39.75 40.0002H8.25201ZM8.90001 38.0002H39.1L24 12.0002L8.90001 38.0002ZM24.868 34.8682C25.1107 34.6255 25.232 34.3362 25.232 34.0002C25.232 33.6642 25.1107 33.3749 24.868 33.1322C24.6253 32.8895 24.336 32.7689 24 32.7702C23.664 32.7715 23.3747 32.8922 23.132 33.1322C22.8893 33.3722 22.768 33.6615 22.768 34.0002C22.768 34.3389 22.8893 34.6282 23.132 34.8682C23.3747 35.1082 23.664 35.2289 24 35.2302C24.336 35.2315 24.6253 35.1109 24.868 34.8682ZM24.714 30.4822C24.9047 30.2902 25 30.0529 25 29.7702V21.7702C25 21.4862 24.904 21.2482 24.712 21.0562C24.52 20.8642 24.282 20.7689 23.998 20.7702C23.714 20.7715 23.4767 20.8669 23.286 21.0562C23.0953 21.2455 23 21.4835 23 21.7702V29.7702C23 30.0529 23.096 30.2902 23.288 30.4822C23.48 30.6742 23.718 30.7702 24.002 30.7702C24.286 30.7702 24.5233 30.6742 24.714 30.4822Z" fill="#606B7F"/>
</svg>
