<svg width="48" height="48" viewBox="0 0 48 48" fill="none" xmlns="http://www.w3.org/2000/svg">
<path d="M40.5 8.25H7.5C6.90326 8.25 6.33097 8.48705 5.90901 8.90901C5.48705 9.33097 5.25 9.90326 5.25 10.5V37.5C5.25 38.0967 5.48705 38.669 5.90901 39.091C6.33097 39.5129 6.90326 39.75 7.5 39.75H40.5C41.0967 39.75 41.669 39.5129 42.091 39.091C42.5129 38.669 42.75 38.0967 42.75 37.5V10.5C42.75 9.90326 42.5129 9.33097 42.091 8.90901C41.669 8.48705 41.0967 8.25 40.5 8.25ZM7.5 9.75H40.5C40.6989 9.75 40.8897 9.82902 41.0303 9.96967C41.171 10.1103 41.25 10.3011 41.25 10.5V18.75H6.75V10.5C6.75 10.3011 6.82902 10.1103 6.96967 9.96967C7.11032 9.82902 7.30109 9.75 7.5 9.75ZM6.75 37.5V20.25H18.75V38.25H7.5C7.30109 38.25 7.11032 38.171 6.96967 38.0303C6.82902 37.8897 6.75 37.6989 6.75 37.5ZM40.5 38.25H20.25V20.25H41.25V37.5C41.25 37.6989 41.171 37.8897 41.0303 38.0303C40.8897 38.171 40.6989 38.25 40.5 38.25Z" fill="#606B7F"/>
</svg>
