<svg width="48" height="48" viewBox="0 0 48 48" fill="none" xmlns="http://www.w3.org/2000/svg">
<path d="M16 14H8C6.93913 14 5.92172 14.4214 5.17157 15.1716C4.42143 15.9217 4 16.9391 4 18V38C4 39.0609 4.42143 40.0783 5.17157 40.8284C5.92172 41.5786 6.93913 42 8 42H40C41.0609 42 42.0783 41.5786 42.8284 40.8284C43.5786 40.0783 44 39.0609 44 38V18C44 16.9391 43.5786 15.9217 42.8284 15.1716C42.0783 14.4214 41.0609 14 40 14H32M16 14V7.2C16 6.88174 16.1264 6.57652 16.3515 6.35147C16.5765 6.12643 16.8817 6 17.2 6H30.8C31.1183 6 31.4235 6.12643 31.6485 6.35147C31.8736 6.57652 32 6.88174 32 7.2V14M16 14H32" stroke="#606B7F" stroke-width="3"/>
</svg>
